<svg xmlns="http://www.w3.org/2000/svg" class="mx-auto" width="100%" height="100%" viewBox="0 0 76.896 58.131"><path id="Path_1" data-name="Path 1" d="M-1136.906,479.693a3.4,3.4,0,0,1,1.63.378,2.782,2.782,0,0,1,1.078.993V479.82h2.695v8.774a4.93,4.93,0,0,1-.482,2.2,3.646,3.646,0,0,1-1.465,1.567,4.73,4.73,0,0,1-2.448.583,5.11,5.11,0,0,1-3.167-.92,3.489,3.489,0,0,1-1.386-2.5h2.663a1.273,1.273,0,0,0,.6.8,2.189,2.189,0,0,0,1.167.292,1.835,1.835,0,0,0,1.332-.482,2.06,2.06,0,0,0,.495-1.535v-1.246a2.977,2.977,0,0,1-1.085,1,3.284,3.284,0,0,1-1.623.387,3.6,3.6,0,0,1-1.969-.561,3.862,3.862,0,0,1-1.4-1.592,5.3,5.3,0,0,1-.511-2.385,5.248,5.248,0,0,1,.511-2.378,3.815,3.815,0,0,1,1.4-1.576A3.628,3.628,0,0,1-1136.906,479.693Zm-25.365,4.379a6.773,6.773,0,0,1-.048.787h-6.1a1.832,1.832,0,0,0,.529,1.253,1.608,1.608,0,0,0,1.142.434,1.415,1.415,0,0,0,1.4-.85h2.867a3.965,3.965,0,0,1-.793,1.56,4.007,4.007,0,0,1-1.442,1.085,4.638,4.638,0,0,1-1.938.4,4.725,4.725,0,0,1-2.3-.552,3.916,3.916,0,0,1-1.576-1.576,4.846,4.846,0,0,1-.568-2.394,4.91,4.91,0,0,1,.558-2.394,3.858,3.858,0,0,1,1.569-1.576,4.731,4.731,0,0,1,2.315-.552,4.694,4.694,0,0,1,2.268.536,3.842,3.842,0,0,1,1.553,1.528A4.63,4.63,0,0,1-1162.271,484.073Zm-25.016,4.664a4.868,4.868,0,0,1-2.324-.552,4.032,4.032,0,0,1-1.623-1.576,4.711,4.711,0,0,1-.59-2.394,4.679,4.679,0,0,1,.6-2.387,4.073,4.073,0,0,1,1.639-1.583,4.893,4.893,0,0,1,2.331-.552,4.9,4.9,0,0,1,2.333.552,4.052,4.052,0,0,1,1.637,1.583,4.656,4.656,0,0,1,.6,2.387,4.613,4.613,0,0,1-.606,2.385,4.1,4.1,0,0,1-1.655,1.585A4.96,4.96,0,0,1-1187.287,488.737Zm41.007,0a4.868,4.868,0,0,1-2.324-.552,4.047,4.047,0,0,1-1.623-1.576,4.712,4.712,0,0,1-.59-2.394,4.657,4.657,0,0,1,.6-2.387,4.053,4.053,0,0,1,1.637-1.583,4.9,4.9,0,0,1,2.333-.552,4.887,4.887,0,0,1,2.331.552,4.059,4.059,0,0,1,1.639,1.583,4.679,4.679,0,0,1,.6,2.387,4.615,4.615,0,0,1-.608,2.385,4.114,4.114,0,0,1-1.653,1.585A4.964,4.964,0,0,1-1146.28,488.737Zm-35.511-4.538a5.25,5.25,0,0,1,.513-2.378,3.8,3.8,0,0,1,1.395-1.576,3.628,3.628,0,0,1,1.969-.552,3.452,3.452,0,0,1,1.583.362,2.9,2.9,0,0,1,1.126.977v-4.081h2.695V488.61h-2.695v-1.262a2.721,2.721,0,0,1-1.078,1.008,3.371,3.371,0,0,1-1.63.38,3.6,3.6,0,0,1-1.969-.561,3.847,3.847,0,0,1-1.395-1.592A5.3,5.3,0,0,1-1181.791,484.2Zm-21.96-1.135a5.952,5.952,0,0,1,.708-2.923,5.064,5.064,0,0,1,1.978-2,5.728,5.728,0,0,1,2.876-.719,5.514,5.514,0,0,1,3.371,1.04,5,5,0,0,1,1.874,2.837h-2.962a2.393,2.393,0,0,0-.938-1.056,2.634,2.634,0,0,0-1.379-.364,2.567,2.567,0,0,0-2.014.868,3.347,3.347,0,0,0-.773,2.315,3.347,3.347,0,0,0,.773,2.315,2.567,2.567,0,0,0,2.014.868,2.634,2.634,0,0,0,1.379-.364,2.4,2.4,0,0,0,.938-1.054h2.962a4.955,4.955,0,0,1-1.874,2.826,5.525,5.525,0,0,1-3.371,1.033,5.75,5.75,0,0,1-2.876-.717,5.1,5.1,0,0,1-1.978-1.994A5.9,5.9,0,0,1-1203.751,483.064Zm52.382-5.514-3.828,7.4v3.656h-2.695v-3.656l-3.828-7.4h3.057l2.141,4.632,2.127-4.632Zm24.514,2.27v8.79h-2.695v-8.79Zm-19.425,6.584a1.754,1.754,0,0,0,1.316-.568,2.251,2.251,0,0,0,.543-1.621,2.3,2.3,0,0,0-.527-1.623,1.712,1.712,0,0,0-1.3-.567,1.713,1.713,0,0,0-1.309.561,2.31,2.31,0,0,0-.52,1.63,2.336,2.336,0,0,0,.513,1.621A1.652,1.652,0,0,0-1146.28,486.4Zm-41.007,0a1.747,1.747,0,0,0,1.314-.568,2.243,2.243,0,0,0,.545-1.621,2.294,2.294,0,0,0-.529-1.623,1.7,1.7,0,0,0-1.3-.567,1.708,1.708,0,0,0-1.307.561,2.31,2.31,0,0,0-.52,1.63,2.336,2.336,0,0,0,.513,1.621A1.651,1.651,0,0,0-1187.287,486.4Zm12.082-2.189a2.2,2.2,0,0,0-.558-1.592,1.818,1.818,0,0,0-1.363-.583,1.834,1.834,0,0,0-1.363.574,2.176,2.176,0,0,0-.558,1.585,2.229,2.229,0,0,0,.558,1.6,1.808,1.808,0,0,0,1.363.59,1.824,1.824,0,0,0,1.363-.581A2.2,2.2,0,0,0-1175.205,484.215Zm41.007,0a2.2,2.2,0,0,0-.558-1.592,1.818,1.818,0,0,0-1.363-.583,1.826,1.826,0,0,0-1.361.574,2.177,2.177,0,0,0-.561,1.585,2.23,2.23,0,0,0,.561,1.6,1.8,1.8,0,0,0,1.361.59,1.824,1.824,0,0,0,1.363-.581A2.2,2.2,0,0,0-1134.2,484.215Zm-30.829-.852a1.377,1.377,0,0,0-.475-1.1,1.732,1.732,0,0,0-1.18-.409,1.694,1.694,0,0,0-1.142.393,1.755,1.755,0,0,0-.576,1.117Zm36.556-4.287a1.634,1.634,0,0,1-1.158-.416,1.358,1.358,0,0,1-.448-1.033,1.369,1.369,0,0,1,.448-1.047,1.636,1.636,0,0,1,1.158-.418,1.608,1.608,0,0,1,1.142.418,1.364,1.364,0,0,1,.45,1.047,1.352,1.352,0,0,1-.45,1.033A1.607,1.607,0,0,1-1128.471,479.076Zm-28.55-5.394a8.864,8.864,0,0,1-6.163-2.723l-.353-.347v0a1.53,1.53,0,0,1-.459-1.146,1.538,1.538,0,0,1,1.587-1.488,1.53,1.53,0,0,1,1,.414h0l.049.047.329.323a5.829,5.829,0,0,0,4.023,1.844h.031l.127,0a3.3,3.3,0,0,0,3.284-3.238c0-.009,0-.043,0-.05a3.3,3.3,0,0,0-3.072-3.441c-.136-.014-.275-.022-.414-.023h-.032a5.967,5.967,0,0,0-3.843,1.594c-.906.78-1.654,1.433-2.271,1.978a.142.142,0,0,1-.032.036c-.547.479-1.011.89-1.4,1.242-.013.011-1.75,1.549-3.041,2.662a9.013,9.013,0,0,1-5.779,2.34h-.05a7.348,7.348,0,0,1-.785-.039,6.282,6.282,0,0,1-5.831-6.565c0-.023,0-.1,0-.118a6.284,6.284,0,0,1,6.238-6.181,8.775,8.775,0,0,1,6.454,2.717c.115.112.234.228.354.347l0,0a1.53,1.53,0,0,1,.459,1.146,1.538,1.538,0,0,1-1.508,1.489h-.079a1.536,1.536,0,0,1-1-.415h0l-.048-.047-.33-.323a5.842,5.842,0,0,0-3.99-1.845h-.032c-.053,0-.106,0-.158,0a3.3,3.3,0,0,0-3.285,3.238c0,.009,0,.043,0,.05a3.3,3.3,0,0,0,3.072,3.441,4.463,4.463,0,0,0,.446.023h.033a5.985,5.985,0,0,0,3.81-1.595c.906-.78,1.653-1.433,2.271-1.977a.162.162,0,0,1,.031-.036c.547-.479,1.012-.89,1.4-1.242.013-.011,1.75-1.549,3.041-2.662a9,9,0,0,1,5.829-2.34h.05a7.335,7.335,0,0,1,.736.039,6.282,6.282,0,0,1,5.831,6.565c0,.023,0,.1,0,.118a6.283,6.283,0,0,1-6.237,6.181c-.081,0-.161.005-.243.005Zm-8.261-27.633a1.541,1.541,0,0,1,1.153.531l7.882,9.067,1.167-1.73a1.541,1.541,0,0,1,1.279-.68h.019a1.543,1.543,0,0,1,.844.263,1.544,1.544,0,0,1,.416,2.142l-2.289,3.394a1.522,1.522,0,0,1-.181.222l-.033.032-.055.05a1.537,1.537,0,0,1-.991.378h-.018a1.539,1.539,0,0,1-1.168-.531l-8.046-9.255-8.045,9.255a1.537,1.537,0,0,1-1.15.531h-.018a1.534,1.534,0,0,1-1.009-.378c-.019-.016-.037-.033-.055-.05l-.033-.032a1.53,1.53,0,0,1-.182-.222l-2.289-3.394a1.544,1.544,0,0,1,.416-2.142,1.541,1.541,0,0,1,.862-.263h.019a1.541,1.541,0,0,1,1.261.68l1.166,1.73,7.883-9.067a1.536,1.536,0,0,1,1.173-.531Zm.012-11.238h-.033a5.131,5.131,0,0,0-5.128,5.129,5.13,5.13,0,0,0,5.128,5.128h.033a5.131,5.131,0,0,0,5.1-5.128A5.131,5.131,0,0,0-1165.27,434.812Z" transform="translate(1203.751 -434.811)" fill-rule="evenodd"/></svg>